<?xml version="1.0" encoding="UTF-8"?>
<svg xmlns="http://www.w3.org/2000/svg" xmlns:xlink="http://www.w3.org/1999/xlink" viewBox="0 0 191.48 191.48">
  <defs>
    <radialGradient id="radial-gradient" cx="118.25" cy="86.54" fx="118.25" fy="86.54" r="59.77" gradientUnits="userSpaceOnUse">
      <stop offset="0" stop-color="#8bd2e6"/>
      <stop offset=".21" stop-color="#8cd1e4"/>
      <stop offset=".28" stop-color="#93d1e0"/>
      <stop offset=".34" stop-color="#9fd0d8"/>
      <stop offset=".38" stop-color="#b0cfcc"/>
      <stop offset=".42" stop-color="#c6cebd"/>
      <stop offset=".45" stop-color="#e0ccab"/>
      <stop offset=".47" stop-color="#ffcb97"/>
      <stop offset=".52" stop-color="#f2cb9f"/>
      <stop offset=".74" stop-color="#bacfc5"/>
      <stop offset=".91" stop-color="#98d1dd"/>
      <stop offset="1" stop-color="#8bd2e6"/>
    </radialGradient>
    <linearGradient id="linear-gradient" x1="0" y1="95.74" x2="66.41" y2="95.74" gradientUnits="userSpaceOnUse">
      <stop offset="0" stop-color="#9c99eb"/>
      <stop offset="1" stop-color="#8bd2e6"/>
    </linearGradient>
    <linearGradient id="linear-gradient-2" x1="90.08" y1="197.74" x2="107.76" y2="133.55" gradientUnits="userSpaceOnUse">
      <stop offset="0" stop-color="#a5f590"/>
      <stop offset="1" stop-color="#8bd2e6"/>
    </linearGradient>
  </defs>
  <g id="Layer_1" data-name="Layer 1">
    <circle cx="95.74" cy="95.74" r="95.74" fill="#fff" stroke-width="0"/>
    <g>
      <path d="m58.8,11.92v118.09c0,8.84,7.16,16,16,16h100.16c1.41,0,2.72-.73,3.43-1.94,8.31-14.19,13.08-30.7,13.08-48.33C191.48,42.86,148.62,0,95.74,0c-12.43,0-23.58,2.07-34.37,6.33-1.53.61-2.55,2.07-2.56,3.72,0,.63,0,1.26,0,1.87Z" fill="url(#radial-gradient)" stroke-width="0"/>
      <path d="m31.43,164.97V24.81C12.13,42.33,0,67.62,0,95.74s12.13,53.41,31.43,70.93v-1.69Z" fill="url(#linear-gradient)" stroke-width="0"/>
      <path d="m45.41,177.19c14.62,9.06,31.86,14.29,50.33,14.29s35.71-5.23,50.33-14.29H45.41Z" fill="url(#linear-gradient-2)" stroke-width="0"/>
    </g>
  </g>
  <g id="Layer_2" data-name="Layer 2">
    <g>
      <circle cx="118.03" cy="86.81" r="44.4" fill="#ffcb97" stroke-width="0"/>
      <polygon points="140.23 64.61 110.63 79.41 95.84 109.01 125.43 94.21 140.23 64.61" fill="#fff" stroke-width="0"/>
    </g>
  </g>
</svg>